PathFileType	4	(X/Y/Z)	E:/New_biomech_experiments/MICROGRAVITY MOCAP/Session 2024-06-22/Neeraj_Tpose_22_06_24.trc	
DataRate	CameraRate	NumFrames	NumMarkers	Units	OrigDataRate	OrigDataStartFrame	OrigNumFrames	
120.00	120.00	8	19	m	120.00	391	1560	
Frame#	Time	MarkerSet_RSHO			MarkerSet_RBAK			MarkerSet_LBHD			MarkerSet_RUPA			MarkerSet_PRSHO			MarkerSet_RWRB			MarkerSet_RELB			MarkerSet_RFRM			MarkerSet_CLAV			MarkerSet_RWRA			MarkerSet_STRN			MarkerSet_ARSHO			MarkerSet_RFHD			MarkerSet_LFHD			MarkerSet_DIA			MarkerSet_C7			MarkerSet_MRELB			MarkerSet_T10			MarkerSet_RBHD			
		X1	Y1	Z1	X2	Y2	Z2	X3	Y3	Z3	X4	Y4	Z4	X5	Y5	Z5	X6	Y6	Z6	X7	Y7	Z7	X8	Y8	Z8	X9	Y9	Z9	X10	Y10	Z10	X11	Y11	Z11	X12	Y12	Z12	X13	Y13	Z13	X14	Y14	Z14	X15	Y15	Z15	X16	Y16	Z16	X17	Y17	Z17	X18	Y18	Z18	X19	Y19	Z19	

391	3.250	-0.04476	1.57739	0.08756	-0.10976	1.37176	0.01616	-0.03683	1.71820	-0.11942	-0.02637	1.54885	0.26689	-0.10321	1.48260	0.08084	-0.06376	1.51641	0.69559	-0.03560	1.55017	0.40296	-0.02719	1.55076	0.54062	0.10556	1.48839	-0.07204	0.03602	1.51070	0.68974	0.13966	1.32554	-0.05439	0.06857	1.51954	0.08465	0.07265	1.81161	0.01987	0.08396	1.82532	-0.08245	0.07745	1.17653	0.11005	-0.09621	1.53120	-0.07011	0.02318	1.44448	0.40966	-0.10978	1.33746	-0.05256	-0.05614	1.71848	-0.01570 
392	3.258	-0.04473	1.57740	0.08757	-0.10975	1.37176	0.01616	-0.03676	1.71821	-0.11941	-0.02638	1.54884	0.26689	-0.10320	1.48260	0.08084	-0.06380	1.51641	0.69559	-0.03563	1.55017	0.40295	-0.02723	1.55075	0.54061	0.10557	1.48838	-0.07203	0.03598	1.51070	0.68974	0.13965	1.32552	-0.05439	0.06859	1.51953	0.08466	0.07271	1.81158	0.01991	0.08403	1.82532	-0.08241	0.07744	1.17652	0.11006	-0.09618	1.53120	-0.07011	0.02317	1.44448	0.40967	-0.10977	1.33747	-0.05255	-0.05619	1.71855	-0.01570 
393	3.267	-0.04471	1.57741	0.08757	-0.10974	1.37176	0.01616	-0.03669	1.71822	-0.11940	-0.02638	1.54884	0.26688	-0.10318	1.48260	0.08084	-0.06385	1.51640	0.69558	-0.03565	1.55016	0.40295	-0.02727	1.55075	0.54061	0.10559	1.48836	-0.07202	0.03593	1.51070	0.68975	0.13964	1.32550	-0.05438	0.06860	1.51952	0.08466	0.07276	1.81156	0.01995	0.08409	1.82533	-0.08237	0.07743	1.17651	0.11006	-0.09615	1.53121	-0.07012	0.02316	1.44448	0.40967	-0.10977	1.33749	-0.05255	-0.05620	1.71860	-0.01570 
394	3.275	-0.04470	1.57742	0.08756	-0.10972	1.37177	0.01615	-0.03662	1.71823	-0.11939	-0.02638	1.54883	0.26688	-0.10317	1.48261	0.08083	-0.06390	1.51639	0.69557	-0.03568	1.55016	0.40294	-0.02731	1.55075	0.54061	0.10560	1.48835	-0.07201	0.03588	1.51070	0.68975	0.13963	1.32549	-0.05437	0.06862	1.51951	0.08466	0.07281	1.81154	0.01999	0.08416	1.82534	-0.08233	0.07743	1.17651	0.11007	-0.09612	1.53122	-0.07012	0.02314	1.44447	0.40967	-0.10976	1.33750	-0.05255	-0.05622	1.71865	-0.01569 
395	3.283	-0.04468	1.57742	0.08756	-0.10971	1.37177	0.01615	-0.03655	1.71823	-0.11938	-0.02638	1.54883	0.26688	-0.10316	1.48261	0.08083	-0.06395	1.51639	0.69556	-0.03571	1.55015	0.40294	-0.02735	1.55075	0.54061	0.10562	1.48834	-0.07200	0.03582	1.51069	0.68975	0.13962	1.32547	-0.05436	0.06863	1.51950	0.08467	0.07286	1.81152	0.02003	0.08422	1.82534	-0.08230	0.07743	1.17650	0.11008	-0.09610	1.53122	-0.07013	0.02312	1.44447	0.40967	-0.10975	1.33751	-0.05255	-0.05627	1.71873	-0.01568 
396	3.292	-0.04467	1.57741	0.08755	-0.10970	1.37178	0.01615	-0.03648	1.71823	-0.11937	-0.02639	1.54882	0.26688	-0.10315	1.48261	0.08082	-0.06400	1.51638	0.69556	-0.03574	1.55015	0.40293	-0.02739	1.55075	0.54061	0.10563	1.48833	-0.07199	0.03576	1.51069	0.68974	0.13961	1.32546	-0.05435	0.06864	1.51949	0.08467	0.07292	1.81150	0.02006	0.08429	1.82533	-0.08226	0.07743	1.17650	0.11008	-0.09607	1.53123	-0.07013	0.02309	1.44446	0.40968	-0.10974	1.33752	-0.05254	-0.05624	1.71875	-0.01568 
397	3.300	-0.04467	1.57740	0.08754	-0.10968	1.37178	0.01616	-0.03643	1.71822	-0.11937	-0.02640	1.54881	0.26688	-0.10315	1.48261	0.08082	-0.06405	1.51638	0.69555	-0.03577	1.55014	0.40292	-0.02744	1.55075	0.54061	0.10564	1.48831	-0.07199	0.03571	1.51068	0.68974	0.13961	1.32545	-0.05434	0.06865	1.51948	0.08468	0.07298	1.81148	0.02010	0.08436	1.82532	-0.08223	0.07743	1.17649	0.11008	-0.09605	1.53123	-0.07014	0.02307	1.44445	0.40968	-0.10973	1.33753	-0.05253	-0.05610	1.71869	-0.01568 
398	3.308	-0.04466	1.57737	0.08753	-0.10967	1.37178	0.01616	-0.03637	1.71820	-0.11935	-0.02641	1.54881	0.26688	-0.10314	1.48261	0.08081	-0.06409	1.51638	0.69554	-0.03580	1.55013	0.40292	-0.02748	1.55075	0.54061	0.10566	1.48830	-0.07198	0.03565	1.51068	0.68973	0.13960	1.32544	-0.05434	0.06866	1.51947	0.08469	0.07303	1.81147	0.02013	0.08443	1.82530	-0.08219	0.07743	1.17649	0.11009	-0.09603	1.53123	-0.07014	0.02304	1.44445	0.40968	-0.10972	1.33753	-0.05252	-0.05590	1.71857	-0.01569 
